<svg xmlns="http://www.w3.org/2000/svg" width="1037" height="1280" viewBox="0 0 1037 1280" version="1.1"><path d="M 489 3.644 C 478.140 5.556, 462.648 10.362, 459.921 12.666 C 459.053 13.400, 457.779 14, 457.091 14 C 455.506 14, 439.949 22.296, 434 26.313 C 425.393 32.125, 409.432 45.768, 405.563 50.619 C 403.422 53.303, 401.149 55.950, 400.513 56.500 C 399.015 57.794, 389.439 70.923, 384.832 78 C 375.540 92.272, 368.245 110.660, 366.979 123 C 366.556 127.125, 365.655 134.951, 364.977 140.391 C 363.611 151.355, 364.123 171.925, 366.001 181.500 C 370.180 202.808, 372.992 211.964, 379.160 224.335 C 385.975 238.006, 394.848 250.841, 403.854 260.058 C 408.060 264.361, 412.283 268.809, 413.240 269.941 C 414.197 271.073, 416.147 272, 417.572 272 C 419.030 272, 421.987 273.481, 424.332 275.386 C 436.825 285.535, 457.708 296.395, 475.500 301.995 C 482.637 304.241, 482.142 299.569, 481.899 362.422 L 481.678 419.500 484.589 425.500 C 489.580 435.788, 498.478 442.906, 510.595 446.306 C 518.535 448.534, 523.297 448.443, 530.535 445.924 C 540.837 442.338, 549.577 435.853, 553.551 428.844 C 558.628 419.891, 558.358 423.825, 558.132 361.919 L 557.922 304.339 561.711 302.777 C 563.795 301.918, 567.525 300.621, 570 299.894 C 581.704 296.460, 597.545 288.165, 611.242 278.298 C 616.050 274.834, 620.463 272, 621.049 272 C 622.634 272, 637.584 257.323, 642.439 251 C 652.728 237.601, 668 208.659, 668 202.560 C 668 201.630, 668.495 199.944, 669.099 198.815 C 670.585 196.039, 672.775 181.433, 674.199 164.800 C 675.079 154.521, 675.089 149.152, 674.241 143.300 C 673.620 139.010, 672.627 132.125, 672.036 128 C 669.753 112.074, 662.969 94.173, 652.660 76.875 C 641.800 58.652, 624.610 40.403, 605.500 26.811 C 596.709 20.558, 577.996 11.736, 566 8.190 C 551.932 4.031, 547.708 3.595, 519.500 3.399 C 504.100 3.292, 490.375 3.402, 489 3.644 M 508.992 81.974 C 485.551 85.001, 462.638 102.253, 452.508 124.500 C 447.636 135.201, 446.695 139.765, 446.287 154.662 C 445.980 165.862, 446.223 169.599, 447.450 172.534 C 448.302 174.574, 449 176.977, 449 177.872 C 449 178.767, 451.137 183.763, 453.750 188.972 C 457.578 196.606, 460.150 200.117, 467 207.058 C 476.704 216.890, 484.542 221.720, 499 226.778 C 508.196 229.995, 508.900 230.088, 521 229.689 C 531.376 229.346, 534.855 228.805, 541.474 226.505 C 557.018 221.105, 568.260 213.435, 577.275 202.080 C 583.389 194.380, 584.280 193.002, 587.017 187 C 588.146 184.525, 589.504 181.719, 590.035 180.764 C 590.566 179.809, 591 178.091, 591 176.948 C 591 175.804, 591.517 173.903, 592.149 172.722 C 593.630 169.954, 593.565 140.925, 592.071 138.133 C 591.482 137.032, 591 135.159, 591 133.970 C 591 132.781, 590.325 130.502, 589.500 128.904 C 588.675 127.307, 587.246 124.537, 586.324 122.750 C 583.098 116.497, 582.470 115.490, 578.354 109.976 C 574.727 105.117, 567.394 98.090, 561.957 94.264 C 558.927 92.131, 544.661 85.258, 541 84.168 C 531.648 81.382, 519.841 80.572, 508.992 81.974 M 97 230.173 C 80.461 232.449, 65.605 237.678, 55 244.957 C 54.175 245.523, 51.250 247.421, 48.500 249.175 C 41.488 253.648, 27.799 268.008, 21.500 277.500 C 14.946 287.376, 10.786 296.205, 8.060 306.026 L 5.971 313.552 5.991 751.579 C 6.009 1143.237, 6.174 1190.182, 7.553 1195.052 C 8.401 1198.049, 9.574 1202.525, 10.159 1205 C 10.744 1207.475, 11.848 1210.210, 12.611 1211.079 C 13.375 1211.947, 14 1213.198, 14 1213.859 C 14 1215.404, 21.373 1228.458, 24.773 1232.934 C 32.021 1242.473, 44.927 1254.477, 55.490 1261.502 C 60.478 1264.820, 73.211 1269.985, 84.865 1273.419 C 89.712 1274.847, 125.071 1274.999, 451.365 1274.993 C 807.591 1274.986, 812.612 1274.959, 820.743 1273.010 C 831.079 1270.532, 844.516 1264.283, 853.500 1257.776 C 861.243 1252.168, 876.613 1237.352, 926.886 1187.037 C 959.674 1154.222, 990.550 1122.968, 995.500 1117.584 C 1012.927 1098.629, 1021.404 1085.619, 1027.166 1068.985 L 1030.452 1059.500 1030.411 1030.500 C 1030.125 827.921, 1030.136 515.517, 1030.433 429 C 1030.736 340.789, 1030.551 318.139, 1029.478 312.500 C 1026.766 298.236, 1019.219 282.304, 1008.740 268.721 C 1002.393 260.494, 986.459 246.292, 980 243.106 C 978.075 242.156, 975.600 240.865, 974.500 240.238 C 968.639 236.894, 956.736 232.927, 946.500 230.906 C 942.298 230.076, 916.576 229.597, 860.650 229.306 C 773.253 228.851, 767.596 229.131, 757.147 234.425 C 745.976 240.086, 738.752 249.564, 736.454 261.577 C 734.602 271.255, 734.560 270.852, 737.500 271.589 C 739.437 272.076, 740 272.860, 740 275.074 C 740 276.646, 740.637 279.410, 741.417 281.216 C 742.196 283.022, 743.554 286.160, 744.435 288.189 C 747.231 294.630, 755.530 302.701, 762.834 306.081 L 769.449 309.143 850.974 309.389 C 922.565 309.605, 933.084 309.830, 937.295 311.233 C 943.755 313.386, 948.200 316.960, 951.568 322.707 C 954.137 327.089, 954.436 328.670, 955.122 341.496 C 955.535 349.198, 955.901 487.004, 955.936 647.731 L 956 939.962 953.750 940.481 C 952.513 940.767, 913.250 941.142, 866.500 941.316 C 784.545 941.620, 781.267 941.704, 775 943.649 C 763.225 947.305, 750.331 953.521, 741.500 959.801 C 735.059 964.381, 723.452 975.969, 718.261 983 C 713.461 989.502, 706.451 1002.670, 705.511 1006.951 C 705.145 1008.616, 704.431 1010.234, 703.923 1010.548 C 703.415 1010.861, 703 1012.372, 703 1013.905 C 703 1015.438, 702.212 1018.224, 701.250 1020.096 C 699.623 1023.261, 699.500 1029.606, 699.500 1110.500 L 699.500 1197.500 405 1197.500 C 153.722 1197.500, 109.546 1197.291, 104 1196.074 C 98.195 1194.801, 96.898 1194.035, 91.871 1188.922 C 87.834 1184.816, 86.025 1182.107, 85.476 1179.348 C 84.397 1173.929, 83.761 370.878, 84.816 346.458 C 85.538 329.748, 85.988 325.923, 87.521 323.458 C 91.031 317.813, 95.426 313.983, 100.949 311.759 L 106.500 309.522 188.504 309.400 L 270.507 309.277 276.504 306.229 C 279.802 304.552, 284.368 301.567, 286.652 299.596 C 291.563 295.357, 296.987 287.509, 297.032 284.579 C 297.049 283.435, 297.724 281.626, 298.532 280.559 C 299.339 279.491, 300 276.930, 300 274.868 C 300 272.805, 300.493 270.813, 301.096 270.441 C 303.281 269.091, 300.590 259.462, 295.173 249.249 C 292.210 243.663, 285.023 236.900, 279.231 234.248 C 268.020 229.116, 265.644 228.991, 181.500 229.140 C 138.600 229.216, 100.575 229.681, 97 230.173 M 245.582 521.864 C 239.793 523.821, 231.648 529.278, 228.718 533.162 C 227.333 534.998, 224.805 539.098, 223.100 542.273 C 220.197 547.679, 220 548.711, 220 558.544 C 220 568.305, 220.223 569.500, 223.177 575.558 C 227.307 584.029, 232.937 589.710, 241.264 593.809 L 247.984 597.117 519.958 597.104 L 791.933 597.090 797.710 594.357 C 809.513 588.774, 818.032 577.820, 819.960 565.748 C 822.979 546.850, 812.981 529.115, 795.351 522.095 C 790.476 520.154, 251.311 519.928, 245.582 521.864 M 255 723.653 C 236.594 726.552, 222.431 739.534, 219.709 756 C 218.702 762.087, 218.692 763.334, 219.591 770.306 C 220.195 774.997, 224.588 784.602, 227.864 788.395 C 231.450 792.549, 239.290 797.965, 244.582 799.945 L 250.167 802.035 519.573 802.061 C 805.402 802.088, 791.619 802.296, 800.009 797.834 C 808.171 793.495, 815.540 784.955, 818.549 776.350 C 821.067 769.149, 820.840 756.039, 818.072 748.798 C 815.484 742.029, 808.682 734.122, 801.597 729.646 C 791.081 723.002, 814.732 723.533, 523 723.390 C 376.975 723.318, 256.375 723.437, 255 723.653 M 248.500 930 C 248.160 930.550, 247.104 931, 246.152 931 C 244.335 931, 239.309 933.372, 234.868 936.325 C 231.327 938.680, 223.801 948.555, 221.779 953.500 C 212.659 975.804, 226.830 1001.877, 250.799 1006.891 C 254.473 1007.660, 286.627 1008, 355.645 1008 C 461.901 1008, 459.883 1008.084, 469.500 1003.238 C 477.705 999.103, 487.894 986.729, 489.458 979 C 490.924 971.756, 491.159 963.497, 490.011 959.563 C 485.779 945.063, 477.393 935.895, 463.829 930.938 C 458.711 929.067, 454.914 929, 353.823 929 C 285.098 929, 248.906 929.344, 248.500 930 M 795.500 1020 C 795.160 1020.550, 793.969 1021, 792.854 1021 C 789.983 1021, 780.384 1030.976, 779.535 1034.841 C 779.153 1036.579, 778.427 1038, 777.921 1038 C 777.367 1038, 777 1069.937, 777 1118 L 777 1198 786.250 1197.994 C 796.134 1197.988, 801.061 1197.023, 807.596 1193.812 C 810.343 1192.462, 834.677 1168.691, 881.466 1121.650 C 919.842 1083.067, 951.800 1050.773, 952.485 1049.885 C 954.853 1046.814, 956.853 1026.374, 955.337 1020.750 C 954.893 1019.102, 950.239 1019, 875.492 1019 C 823.655 1019, 795.904 1019.347, 795.500 1020" stroke="none" fill="currentColor" fill-rule="evenodd"/><path d="" stroke="none" fill="currentColor" fill-rule="evenodd"/></svg>